<?xml version="1.0" encoding="utf-8"?>
<svg viewBox="0 0 272.96 114.01" xmlns="http://www.w3.org/2000/svg" xmlns:xlink="http://www.w3.org/1999/xlink">
  <defs>
    <linearGradient id="linearGradient3247">
      <stop style="stop-color:#e6e6e6;stop-opacity:1;" offset="0" id="stop3249"/>
      <stop style="stop-color:#e6e6e6;stop-opacity:0;" offset="1" id="stop3251"/>
    </linearGradient>
    <clipPath clipPathUnits="userSpaceOnUse" id="clipPath2415">
      <rect style="opacity:1;fill:#ffffff;fill-opacity:1;fill-rule:nonzero;stroke:none;stroke-width:27.98999977;stroke-linejoin:round;stroke-miterlimit:4;stroke-dasharray:27.98999977, 27.98999977;stroke-dashoffset:279.89999771;stroke-opacity:1" id="rect2417" width="75" height="175" x="725" y="240"/>
    </clipPath>
    <radialGradient id="radialGradient3253" cx="149.99998" cy="340" r="25" gradientUnits="userSpaceOnUse" gradientTransform="matrix(0.8060837,-5.692368e-7,5.4184898e-7,0.7673004,29.087269,79.117956)" xlink:href="#linearGradient3247"/>
    <radialGradient id="radialGradient3257" gradientUnits="userSpaceOnUse" gradientTransform="matrix(0.8060837,-5.692368e-7,5.4184898e-7,0.7673004,29.087269,79.117956)" cx="149.99998" cy="340" r="25" xlink:href="#linearGradient3247"/>
    <radialGradient id="radialGradient3261" gradientUnits="userSpaceOnUse" gradientTransform="matrix(0.8060837,-5.692368e-7,5.4184898e-7,0.7673004,29.087269,79.117956)" cx="149.99998" cy="340" r="25" xlink:href="#linearGradient3247"/>
  </defs>
  <rect width="272.96" height="114.01" style="fill: rgb(216, 216, 216);"/>
  <g id="layer1" transform="matrix(0.106607, 0, 0, 0.106607, 85.517227, 10.480424)" style="">
    <rect style="opacity:1;fill:#000000;fill-opacity:1;fill-rule:nonzero;stroke:#000000;stroke-width:1.07406449;stroke-linejoin:miter;stroke-miterlimit:4;stroke-dasharray:none;stroke-dashoffset:279.9;stroke-opacity:1" id="rect2383" width="674.92596" height="403.80942" x="125.03703" y="290.03702"/>
    <rect style="opacity:1;fill:#000000;fill-opacity:1;fill-rule:nonzero;stroke:none;stroke-width:27.98999977;stroke-linejoin:round;stroke-miterlimit:4;stroke-dasharray:27.98999977, 27.98999977;stroke-dashoffset:279.89999771;stroke-opacity:1" id="rect2387" width="675" height="100" x="125" y="290"/>
    <path style="fill:#ffffff;fill-rule:evenodd;stroke:#000000;stroke-width:1px;stroke-linecap:butt;stroke-linejoin:miter;stroke-opacity:1" d="M 125,290 L 175,390 L 250,390 L 200,290 L 125,290 z" id="path2395"/>
    <path id="path2397" d="M 275,290 L 325,390 L 400,390 L 350,290 L 275,290 z" style="fill:#ffffff;fill-rule:evenodd;stroke:#000000;stroke-width:1px;stroke-linecap:butt;stroke-linejoin:miter;stroke-opacity:1"/>
    <path style="fill:#ffffff;fill-rule:evenodd;stroke:#000000;stroke-width:1px;stroke-linecap:butt;stroke-linejoin:miter;stroke-opacity:1" d="M 425,290 L 475,390 L 550,390 L 500,290 L 425,290 z" id="path2399"/>
    <path id="path2401" d="M 575,290 L 625,390 L 700,390 L 650,290 L 575,290 z" style="fill:#ffffff;fill-rule:evenodd;stroke:#000000;stroke-width:1px;stroke-linecap:butt;stroke-linejoin:miter;stroke-opacity:1"/>
    <path style="fill:#ffffff;fill-rule:evenodd;stroke:#000000;stroke-width:1px;stroke-linecap:butt;stroke-linejoin:miter;stroke-opacity:1" d="M 725,290 L 775,390 L 850,390 L 800,290 L 725,290 z" id="path2411" clip-path="url(#clipPath2415)"/>
    <g id="g3199" transform="matrix(0.9999962,-2.749833e-3,2.749833e-3,0.9999962,-0.7983705,0.3427549)">
      <g id="g3277" transform="matrix(0.9849249,-0.1729824,0.1729824,0.9849249,-48.717605,25.851762)">
        <rect style="opacity:1;fill:#000000;fill-opacity:1;fill-rule:nonzero;stroke:#000000;stroke-width:1.01992762;stroke-linejoin:miter;stroke-miterlimit:4;stroke-dasharray:1.01992769, 1.01992769;stroke-dashoffset:10.19927695;stroke-opacity:1" id="rect2385" width="674.97968" height="101.87254" x="124.28323" y="190.40121" transform="matrix(0.9999962,-2.7647416e-3,2.4726967e-3,0.9999969,0,0)"/>
        <path id="path3189" d="M 125,290 L 175,190 L 250,190 L 200,290 L 125,290 z" style="fill:#ffffff;fill-rule:evenodd;stroke:#000000;stroke-width:1px;stroke-linecap:butt;stroke-linejoin:miter;stroke-opacity:1"/>
        <path style="fill:#ffffff;fill-rule:evenodd;stroke:#000000;stroke-width:1px;stroke-linecap:butt;stroke-linejoin:miter;stroke-opacity:1" d="M 275,290 L 325,190 L 400,190 L 350,290 L 275,290 z" id="path3191"/>
        <path id="path3193" d="M 425,290 L 475,190 L 550,190 L 500,290 L 425,290 z" style="fill:#ffffff;fill-rule:evenodd;stroke:#000000;stroke-width:1px;stroke-linecap:butt;stroke-linejoin:miter;stroke-opacity:1"/>
        <path style="fill:#ffffff;fill-rule:evenodd;stroke:#000000;stroke-width:1px;stroke-linecap:butt;stroke-linejoin:miter;stroke-opacity:1" d="M 575,290 L 625,190 L 700,190 L 650,290 L 575,290 z" id="path3195"/>
        <path clip-path="url(#clipPath2415)" id="path3197" d="M 725,290 L 775,390 L 850,390 L 800,290 L 725,290 z" style="fill:#ffffff;fill-rule:evenodd;stroke:#000000;stroke-width:1px;stroke-linecap:butt;stroke-linejoin:miter;stroke-opacity:1" transform="matrix(1,0,0,-1,0,580)"/>
      </g>
    </g>
    <path transform="scale(0.809895,1.2347279)" style="font-size:31.33567429px;font-style:normal;font-weight:normal;fill:#ffffff;fill-opacity:1;stroke:none;stroke-width:1px;stroke-linecap:butt;stroke-linejoin:miter;stroke-opacity:1;font-family:Bitstream Vera Sans" d="M 180.21828,346.63492 L 180.21828,324.20421 L 188.67952,324.20421 C 190.16877,324.20423 191.30612,324.27563 192.09156,324.41841 C 193.19319,324.60204 194.11633,324.95141 194.86098,325.46651 C 195.60559,325.98165 196.20486,326.70333 196.6588,327.63155 C 197.1127,328.5598 197.33966,329.57984 197.33968,330.69167 C 197.33966,332.59916 196.73273,334.21338 195.5189,335.53432 C 194.30504,336.85528 192.11195,337.51576 188.93963,337.51575 L 183.1866,337.51575 L 183.1866,346.63492 L 180.21828,346.63492 z M 183.1866,334.86874 L 188.98554,334.86874 C 190.9032,334.86875 192.26495,334.51174 193.0708,333.7977 C 193.87662,333.08368 194.27953,332.07894 194.27955,330.78347 C 194.27953,329.84505 194.04238,329.04177 193.56807,328.37363 C 193.09374,327.70552 192.46896,327.26435 191.69375,327.05012 C 191.19391,326.91754 190.27078,326.85123 188.92433,326.85121 L 183.1866,326.85121 L 183.1866,334.86874 z M 201.19543,346.63492 L 201.19543,324.20421 L 211.14084,324.20421 C 213.1401,324.20423 214.65996,324.40569 215.70042,324.80858 C 216.74085,325.21152 217.57218,325.923 218.19442,326.94302 C 218.81663,327.96308 219.12774,329.09022 219.12776,330.32445 C 219.12774,331.91573 218.61262,333.25709 217.5824,334.34852 C 216.55214,335.43997 214.96088,336.1336 212.80861,336.4294 C 213.59402,336.80683 214.19075,337.17914 214.59878,337.54635 C 215.4658,338.34199 216.28693,339.33653 217.06218,340.52997 L 220.96384,346.63492 L 217.23049,346.63492 L 214.26216,341.96823 C 213.39511,340.62178 212.68109,339.59154 212.12008,338.8775 C 211.55904,338.16348 211.05667,337.66366 210.61297,337.37804 C 210.16924,337.09244 209.71787,336.89353 209.25886,336.78132 C 208.92224,336.70992 208.37142,336.67422 207.60639,336.67421 L 204.16375,336.67421 L 204.16375,346.63492 L 201.19543,346.63492 z M 204.16375,334.10371 L 210.54411,334.10371 C 211.90076,334.10372 212.9616,333.96347 213.72664,333.68294 C 214.49166,333.40244 215.07308,332.95363 215.47091,332.33649 C 215.86871,331.71938 216.06762,331.0487 216.06764,330.32445 C 216.06762,329.26363 215.68256,328.39149 214.91244,327.70805 C 214.14229,327.02464 212.9259,326.68293 211.26324,326.68291 L 204.16375,326.68291 L 204.16375,334.10371 z M 222.89171,335.71027 C 222.89171,331.98714 223.89135,329.07237 225.89064,326.96597 C 227.88991,324.8596 230.47061,323.80641 233.63275,323.80639 C 235.70342,323.80641 237.5701,324.30113 239.23278,325.29055 C 240.89543,326.28001 242.16283,327.65962 243.03498,329.42937 C 243.9071,331.19916 244.34316,333.20609 244.34319,335.45016 C 244.34316,337.72486 243.88415,339.75985 242.96613,341.55511 C 242.04807,343.35039 240.74752,344.70959 239.06447,345.63273 C 237.38139,346.55587 235.56572,347.01743 233.61745,347.01743 C 231.50595,347.01743 229.61888,346.50741 227.95622,345.48737 C 226.29355,344.46733 225.0338,343.07498 224.17697,341.3103 C 223.32013,339.54564 222.89171,337.67896 222.89171,335.71027 L 222.89171,335.71027 z M 225.95184,335.75618 C 225.95183,338.45929 226.67861,340.58863 228.13218,342.14419 C 229.58573,343.69975 231.40905,344.47753 233.60215,344.47753 C 235.83603,344.47753 237.67465,343.6921 239.11802,342.12123 C 240.56136,340.55038 241.28304,338.32159 241.28306,335.43486 C 241.28304,333.609 240.97448,332.01519 240.35737,330.65342 C 239.74023,329.29168 238.8375,328.23594 237.64916,327.48619 C 236.4608,326.73648 235.1271,326.36161 233.64805,326.36159 C 231.54676,326.36161 229.73873,327.08329 228.22398,328.52663 C 226.70921,329.97001 225.95183,332.37985 225.95184,335.75618 L 225.95184,335.75618 z M 248.15304,346.63492 L 248.15304,324.20421 L 255.87985,324.20421 C 257.62411,324.20423 258.95527,324.31133 259.87332,324.52552 C 261.15855,324.82135 262.2551,325.35687 263.16295,326.13208 C 264.34618,327.13174 265.23107,328.40935 265.81761,329.96489 C 266.40411,331.52047 266.69737,333.29789 266.69739,335.29716 C 266.69737,337.00064 266.49847,338.5103 266.10067,339.82614 C 265.70283,341.142 265.19281,342.23089 264.57061,343.09282 C 263.94836,343.95476 263.26749,344.63309 262.52798,345.12781 C 261.78843,345.62253 260.89589,345.99739 259.85037,346.2524 C 258.80481,346.50741 257.60371,346.63492 256.24707,346.63492 L 248.15304,346.63492 z M 251.12136,343.98791 L 255.91046,343.98791 C 257.3895,343.98791 258.5498,343.85021 259.39135,343.57479 C 260.23287,343.29939 260.90354,342.91177 261.40338,342.41195 C 262.10719,341.70812 262.65546,340.76204 263.0482,339.57368 C 263.44089,338.38534 263.63725,336.94453 263.63727,335.25126 C 263.63725,332.90517 263.25219,331.10225 262.48207,329.84249 C 261.71193,328.58275 260.77604,327.73867 259.67441,327.31023 C 258.87876,327.00424 257.59861,326.85123 255.83395,326.85121 L 251.12136,326.85121 L 251.12136,343.98791 z M 285.51716,324.20421 L 288.48548,324.20421 L 288.48548,337.16383 C 288.48546,339.41813 288.23045,341.2083 287.72045,342.53435 C 287.21041,343.86041 286.28982,344.9391 284.95869,345.77043 C 283.62752,346.60177 281.8807,347.01743 279.71822,347.01743 C 277.61693,347.01743 275.89816,346.65532 274.56191,345.93109 C 273.22565,345.20686 272.27192,344.15877 271.7007,342.78681 C 271.12947,341.41486 270.84386,339.54054 270.84386,337.16383 L 270.84386,324.20421 L 273.81218,324.20421 L 273.81218,337.14853 C 273.81218,339.09682 273.99324,340.53253 274.35536,341.45566 C 274.71746,342.3788 275.33969,343.09028 276.22203,343.59009 C 277.10436,344.08992 278.18305,344.33983 279.45811,344.33982 C 281.64099,344.33983 283.19655,343.84511 284.1248,342.85566 C 285.05302,341.86623 285.51714,339.96385 285.51716,337.14853 L 285.51716,324.20421 z M 309.44733,338.7704 L 312.41565,339.52013 C 311.79341,341.95803 310.67391,343.81706 309.05717,345.09721 C 307.44038,346.37736 305.46406,347.01743 303.12818,347.01743 C 300.71067,347.01743 298.74454,346.52526 297.22979,345.54092 C 295.71502,344.55659 294.56237,343.13108 293.77184,341.2644 C 292.98131,339.39773 292.58604,337.39335 292.58605,335.25126 C 292.58604,332.91537 293.03231,330.87784 293.92485,329.13866 C 294.81738,327.39951 296.08733,326.07855 297.73471,325.1758 C 299.38206,324.27308 301.19519,323.82171 303.17408,323.82169 C 305.41815,323.82171 307.30523,324.39294 308.83531,325.53536 C 310.36535,326.67783 311.43129,328.28439 312.03314,330.35506 L 309.11072,331.04358 C 308.59048,329.41154 307.83565,328.22319 306.84623,327.47854 C 305.85677,326.73393 304.61232,326.36161 303.11287,326.36159 C 301.38899,326.36161 299.94819,326.77473 298.79045,327.60094 C 297.6327,328.4272 296.81921,329.53649 296.35,330.92883 C 295.88078,332.3212 295.64617,333.75691 295.64617,335.23595 C 295.64617,337.14344 295.92413,338.80866 296.48005,340.23161 C 297.03597,341.65457 297.90046,342.71796 299.07351,343.42179 C 300.24655,344.12562 301.5165,344.47753 302.88337,344.47753 C 304.54602,344.47753 305.95368,343.99811 307.10634,343.03927 C 308.25897,342.08044 309.0393,340.65748 309.44733,338.7704 L 309.44733,338.7704 z M 321.79493,346.63492 L 321.79493,326.85121 L 314.40473,326.85121 L 314.40473,324.20421 L 332.18406,324.20421 L 332.18406,326.85121 L 324.76325,326.85121 L 324.76325,346.63492 L 321.79493,346.63492 z M 335.74911,346.63492 L 335.74911,324.20421 L 338.71743,324.20421 L 338.71743,346.63492 L 335.74911,346.63492 z M 343.0322,335.71027 C 343.0322,331.98714 344.03184,329.07237 346.03112,326.96597 C 348.0304,324.8596 350.6111,323.80641 353.77324,323.80639 C 355.84391,323.80641 357.71058,324.30113 359.37327,325.29055 C 361.03592,326.28001 362.30332,327.65962 363.17547,329.42937 C 364.04758,331.19916 364.48365,333.20609 364.48367,335.45016 C 364.48365,337.72486 364.02463,339.75985 363.10662,341.55511 C 362.18856,343.35039 360.88801,344.70959 359.20496,345.63273 C 357.52188,346.55587 355.7062,347.01743 353.75794,347.01743 C 351.64644,347.01743 349.75937,346.50741 348.09671,345.48737 C 346.43404,344.46733 345.17429,343.07498 344.31745,341.3103 C 343.46062,339.54564 343.0322,337.67896 343.0322,335.71027 L 343.0322,335.71027 z M 346.09233,335.75618 C 346.09232,338.45929 346.8191,340.58863 348.27267,342.14419 C 349.72622,343.69975 351.54954,344.47753 353.74264,344.47753 C 355.97651,344.47753 357.81514,343.6921 359.25851,342.12123 C 360.70185,340.55038 361.42353,338.32159 361.42355,335.43486 C 361.42353,333.609 361.11497,332.01519 360.49786,330.65342 C 359.88072,329.29168 358.97798,328.23594 357.78965,327.48619 C 356.60129,326.73648 355.26759,326.36161 353.78854,326.36159 C 351.68724,326.36161 349.87922,327.08329 348.36447,328.52663 C 346.8497,329.97001 346.09232,332.37985 346.09233,335.75618 L 346.09233,335.75618 z M 368.26292,346.63492 L 368.26292,324.20421 L 371.30774,324.20421 L 383.08922,341.81522 L 383.08922,324.20421 L 385.93514,324.20421 L 385.93514,346.63492 L 382.89031,346.63492 L 371.10884,329.0086 L 371.10884,346.63492 L 368.26292,346.63492 z" id="text3207"/>
    <path transform="scale(0.809895,1.2347279)" style="font-size:31.33567429px;font-style:normal;font-weight:normal;fill:#ffffff;fill-opacity:1;stroke:none;stroke-width:1px;stroke-linecap:butt;stroke-linejoin:miter;stroke-opacity:1;font-family:Bitstream Vera Sans" d="M 187.62668,548.29846 L 187.62668,525.86775 L 195.3535,525.86775 C 197.09775,525.86777 198.42891,525.97488 199.34696,526.18906 C 200.63219,526.4849 201.72874,527.02042 202.63659,527.79563 C 203.81982,528.79529 204.70471,530.07289 205.29125,531.62843 C 205.87775,533.18401 206.17101,534.96143 206.17104,536.9607 C 206.17101,538.66418 205.97211,540.17384 205.57431,541.48969 C 205.17647,542.80554 204.66645,543.89444 204.04425,544.75637 C 203.42201,545.61831 202.74113,546.29663 202.00162,546.79135 C 201.26207,547.28607 200.36953,547.66094 199.32401,547.91595 C 198.27845,548.17096 197.07735,548.29846 195.72071,548.29846 L 187.62668,548.29846 z M 190.595,545.65145 L 195.3841,545.65145 C 196.86315,545.65146 198.02344,545.51375 198.86499,545.23834 C 199.70651,544.96293 200.37718,544.57531 200.87702,544.07549 C 201.58083,543.37167 202.1291,542.42558 202.52184,541.23722 C 202.91454,540.04888 203.11089,538.60808 203.11091,536.9148 C 203.11089,534.56872 202.72583,532.7658 201.95571,531.50603 C 201.18557,530.2463 200.24968,529.40221 199.14805,528.97378 C 198.3524,528.66778 197.07225,528.51478 195.30759,528.51476 L 190.595,528.51476 L 190.595,545.65145 z M 207.8082,548.29846 L 216.42245,525.86775 L 219.62028,525.86775 L 228.80065,548.29846 L 225.41922,548.29846 L 222.80281,541.50499 L 213.42353,541.50499 L 210.96013,548.29846 L 207.8082,548.29846 z M 214.28036,539.08749 L 221.88477,539.08749 L 219.54378,532.87543 C 218.82974,530.98838 218.29932,529.43791 217.95251,528.22405 C 217.66689,529.66232 217.26398,531.09038 216.74376,532.50822 L 214.28036,539.08749 z M 236.90999,548.29846 L 236.90999,528.51476 L 229.51978,528.51476 L 229.51978,525.86775 L 247.29911,525.86775 L 247.29911,528.51476 L 239.87831,528.51476 L 239.87831,548.29846 L 236.90999,548.29846 z M 250.42044,548.29846 L 250.42044,525.86775 L 266.63909,525.86775 L 266.63909,528.51476 L 253.38876,528.51476 L 253.38876,535.38474 L 265.79756,535.38474 L 265.79756,538.01644 L 253.38876,538.01644 L 253.38876,545.65145 L 267.15932,545.65145 L 267.15932,548.29846 L 250.42044,548.29846 z" id="text3219"/>
    <path transform="scale(0.809895,1.2347279)" style="font-size:31.33567429px;font-style:normal;font-weight:normal;fill:#ffffff;fill-opacity:1;stroke:none;stroke-width:1px;stroke-linecap:butt;stroke-linejoin:miter;stroke-opacity:1;font-family:Bitstream Vera Sans" d="M 203.63113,499.93962 L 206.59945,500.68935 C 205.97721,503.12725 204.85771,504.98628 203.24097,506.26643 C 201.62418,507.54658 199.64786,508.18665 197.31197,508.18665 C 194.89447,508.18665 192.92834,507.69448 191.41359,506.71014 C 189.89882,505.72581 188.74617,504.3003 187.95564,502.43362 C 187.16511,500.56695 186.76984,498.56257 186.76985,496.42048 C 186.76984,494.08459 187.21611,492.04706 188.10865,490.30788 C 189.00118,488.56873 190.27113,487.24777 191.91851,486.34502 C 193.56586,485.4423 195.37899,484.99093 197.35788,484.99091 C 199.60195,484.99093 201.48903,485.56216 203.01911,486.70458 C 204.54915,487.84705 205.61509,489.45361 206.21694,491.52428 L 203.29452,492.2128 C 202.77428,490.58076 202.01945,489.39241 201.03003,488.64776 C 200.04057,487.90315 198.79612,487.53083 197.29667,487.53081 C 195.57279,487.53083 194.13199,487.94395 192.97425,488.77016 C 191.81649,489.59642 191.00301,490.70571 190.5338,492.09805 C 190.06458,493.49042 189.82997,494.92613 189.82997,496.40517 C 189.82997,498.31266 190.10793,499.97788 190.66385,501.40083 C 191.21977,502.82379 192.08426,503.88718 193.25731,504.59101 C 194.43035,505.29484 195.7003,505.64675 197.06716,505.64675 C 198.72982,505.64675 200.13747,505.16733 201.29014,504.20849 C 202.44277,503.24966 203.2231,501.8267 203.63113,499.93962 L 203.63113,499.93962 z M 207.8082,507.80414 L 216.42245,485.37343 L 219.62028,485.37343 L 228.80065,507.80414 L 225.41922,507.80414 L 222.80281,501.01066 L 213.42353,501.01066 L 210.96013,507.80414 L 207.8082,507.80414 z M 214.28036,498.59316 L 221.88477,498.59316 L 219.54378,492.38111 C 218.82974,490.49405 218.29932,488.94359 217.95251,487.72972 C 217.66689,489.168 217.26398,490.59606 216.74376,492.0139 L 214.28036,498.59316 z M 231.11105,507.80414 L 231.11105,485.37343 L 235.57883,485.37343 L 240.88815,501.25547 C 241.37775,502.73454 241.73477,503.84128 241.95919,504.57571 C 242.21419,503.75968 242.612,502.56113 243.15264,500.98006 L 248.52316,485.37343 L 252.51662,485.37343 L 252.51662,507.80414 L 249.6554,507.80414 L 249.6554,489.03027 L 243.13734,507.80414 L 240.45973,507.80414 L 233.97227,488.70896 L 233.97227,507.80414 L 231.11105,507.80414 z M 257.39752,507.80414 L 257.39752,485.37343 L 273.61618,485.37343 L 273.61618,488.02043 L 260.36584,488.02043 L 260.36584,494.89041 L 272.77464,494.89041 L 272.77464,497.52212 L 260.36584,497.52212 L 260.36584,505.15713 L 274.1364,505.15713 L 274.1364,507.80414 L 257.39752,507.80414 z M 278.31347,507.80414 L 278.31347,485.37343 L 288.25887,485.37343 C 290.25814,485.37345 291.778,485.57491 292.81846,485.9778 C 293.85888,486.38074 294.69021,487.09222 295.31246,488.11224 C 295.93466,489.1323 296.24578,490.25944 296.2458,491.49367 C 296.24578,493.08495 295.73066,494.42631 294.70043,495.51774 C 293.67017,496.60919 292.07891,497.30282 289.92664,497.59862 C 290.71206,497.97605 291.30878,498.34836 291.71681,498.71557 C 292.58383,499.51121 293.40496,500.50575 294.18021,501.69919 L 298.08187,507.80414 L 294.34852,507.80414 L 291.3802,503.13745 C 290.51315,501.791 289.79912,500.76076 289.23811,500.04672 C 288.67708,499.3327 288.17471,498.83288 287.731,498.54726 C 287.28727,498.26166 286.8359,498.06275 286.3769,497.95054 C 286.04027,497.87914 285.48945,497.84344 284.72443,497.84343 L 281.28179,497.84343 L 281.28179,507.80414 L 278.31347,507.80414 z M 281.28179,495.27293 L 287.66215,495.27293 C 289.01879,495.27294 290.07963,495.13269 290.84468,494.85216 C 291.60969,494.57166 292.19112,494.12285 292.58895,493.50571 C 292.98675,492.8886 293.18565,492.21792 293.18567,491.49367 C 293.18565,490.43285 292.80059,489.56071 292.03048,488.87727 C 291.26033,488.19386 290.04393,487.85215 288.38128,487.85213 L 281.28179,487.85213 L 281.28179,495.27293 z M 298.44909,507.80414 L 307.06334,485.37343 L 310.26117,485.37343 L 319.44154,507.80414 L 316.0601,507.80414 L 313.4437,501.01066 L 304.06441,501.01066 L 301.60101,507.80414 L 298.44909,507.80414 z M 304.92125,498.59316 L 312.52566,498.59316 L 310.18466,492.38111 C 309.47062,490.49405 308.9402,488.94359 308.5934,487.72972 C 308.30778,489.168 307.90486,490.59606 307.38465,492.0139 L 304.92125,498.59316 z" id="text3223"/>
    <path transform="scale(0.809895,1.2347279)" style="font-size:31.33567429px;font-style:normal;font-weight:normal;fill:#ffffff;fill-opacity:1;stroke:none;stroke-width:1px;stroke-linecap:butt;stroke-linejoin:miter;stroke-opacity:1;font-family:Bitstream Vera Sans" d="M 187.62668,467.30939 L 187.62668,444.87868 L 195.3535,444.87868 C 197.09775,444.8787 198.42891,444.9858 199.34696,445.19999 C 200.63219,445.49582 201.72874,446.03134 202.63659,446.80655 C 203.81982,447.80621 204.70471,449.08381 205.29125,450.63936 C 205.87775,452.19494 206.17101,453.97236 206.17104,455.97163 C 206.17101,457.67511 205.97211,459.18476 205.57431,460.50061 C 205.17647,461.81647 204.66645,462.90536 204.04425,463.76729 C 203.42201,464.62923 202.74113,465.30756 202.00162,465.80228 C 201.26207,466.297 200.36953,466.67186 199.32401,466.92687 C 198.27845,467.18188 197.07735,467.30939 195.72071,467.30939 L 187.62668,467.30939 z M 190.595,464.66238 L 195.3841,464.66238 C 196.86315,464.66238 198.02344,464.52468 198.86499,464.24926 C 199.70651,463.97385 200.37718,463.58624 200.87702,463.08642 C 201.58083,462.38259 202.1291,461.4365 202.52184,460.24815 C 202.91454,459.05981 203.11089,457.619 203.11091,455.92572 C 203.11089,453.57964 202.72583,451.77672 201.95571,450.51695 C 201.18557,449.25722 200.24968,448.41314 199.14805,447.9847 C 198.3524,447.67871 197.07225,447.5257 195.30759,447.52568 L 190.595,447.52568 L 190.595,464.66238 z M 210.77652,467.30939 L 210.77652,444.87868 L 213.74484,444.87868 L 213.74484,467.30939 L 210.77652,467.30939 z M 219.00826,467.30939 L 219.00826,444.87868 L 228.95366,444.87868 C 230.95293,444.8787 232.47279,445.08016 233.51325,445.48305 C 234.55367,445.88599 235.385,446.59747 236.00725,447.61749 C 236.62945,448.63755 236.94057,449.76469 236.94059,450.99892 C 236.94057,452.5902 236.42545,453.93156 235.39522,455.02299 C 234.36496,456.11444 232.7737,456.80807 230.62143,457.10387 C 231.40685,457.4813 232.00357,457.85361 232.4116,458.22082 C 233.27862,459.01646 234.09975,460.011 234.875,461.20444 L 238.77666,467.30939 L 235.04331,467.30939 L 232.07499,462.6427 C 231.20794,461.29625 230.49391,460.26601 229.9329,459.55197 C 229.37187,458.83795 228.8695,458.33813 228.42579,458.05251 C 227.98206,457.76691 227.53069,457.568 227.07169,457.45579 C 226.73506,457.38439 226.18424,457.34869 225.41922,457.34868 L 221.97658,457.34868 L 221.97658,467.30939 L 219.00826,467.30939 z M 221.97658,454.77818 L 228.35694,454.77818 C 229.71358,454.77819 230.77442,454.63793 231.53947,454.35741 C 232.30448,454.07691 232.88591,453.62809 233.28374,453.01096 C 233.68154,452.39385 233.88044,451.72317 233.88046,450.99892 C 233.88044,449.9381 233.49538,449.06596 232.72527,448.38252 C 231.95512,447.69911 230.73872,447.3574 229.07607,447.35738 L 221.97658,447.35738 L 221.97658,454.77818 z M 241.66848,467.30939 L 241.66848,444.87868 L 257.88714,444.87868 L 257.88714,447.52568 L 244.6368,447.52568 L 244.6368,454.39566 L 257.0456,454.39566 L 257.0456,457.02737 L 244.6368,457.02737 L 244.6368,464.66238 L 258.40736,464.66238 L 258.40736,467.30939 L 241.66848,467.30939 z M 278.54297,459.44487 L 281.51129,460.1946 C 280.88905,462.6325 279.76955,464.49153 278.15281,465.77167 C 276.53603,467.05183 274.5597,467.6919 272.22382,467.6919 C 269.80631,467.6919 267.84018,467.19973 266.32543,466.21539 C 264.81066,465.23105 263.65802,463.80555 262.86749,461.93887 C 262.07695,460.0722 261.68169,458.06782 261.68169,455.92572 C 261.68169,453.58984 262.12795,451.55231 263.02049,449.81313 C 263.91303,448.07397 265.18298,446.75302 266.83035,445.85026 C 268.47771,444.94755 270.29083,444.49618 272.26972,444.49616 C 274.5138,444.49618 276.40087,445.0674 277.93095,446.20983 C 279.46099,447.3523 280.52693,448.95886 281.12878,451.02953 L 278.20636,451.71805 C 277.68612,450.086 276.93129,448.89766 275.94187,448.15301 C 274.95241,447.4084 273.70796,447.03608 272.20852,447.03606 C 270.48464,447.03608 269.04383,447.4492 267.88609,448.27541 C 266.72834,449.10166 265.91485,450.21096 265.44564,451.6033 C 264.97642,452.99567 264.74181,454.43138 264.74181,455.91042 C 264.74181,457.81791 265.01977,459.48313 265.5757,460.90608 C 266.13161,462.32904 266.9961,463.39243 268.16915,464.09626 C 269.34219,464.80009 270.61214,465.152 271.97901,465.152 C 273.64166,465.152 275.04932,464.67258 276.20198,463.71374 C 277.35461,462.75491 278.13494,461.33195 278.54297,459.44487 L 278.54297,459.44487 z M 290.89058,467.30939 L 290.89058,447.52568 L 283.50038,447.52568 L 283.50038,444.87868 L 301.2797,444.87868 L 301.2797,447.52568 L 293.8589,447.52568 L 293.8589,467.30939 L 290.89058,467.30939 z M 303.43709,456.38474 C 303.43709,452.66161 304.43672,449.74684 306.43601,447.64044 C 308.43528,445.53407 311.01599,444.48088 314.17812,444.48086 C 316.24879,444.48088 318.11547,444.9756 319.77815,445.96502 C 321.4408,446.95448 322.7082,448.33408 323.58036,450.10384 C 324.45247,451.87362 324.88854,453.88055 324.88856,456.12463 C 324.88854,458.39933 324.42952,460.43431 323.5115,462.22958 C 322.59345,464.02486 321.29289,465.38406 319.60984,466.3072 C 317.92676,467.23033 316.11109,467.6919 314.16282,467.6919 C 312.05133,467.6919 310.16425,467.18188 308.50159,466.16184 C 306.83892,465.1418 305.57917,463.74945 304.72234,461.98477 C 303.8655,460.22011 303.43709,458.35343 303.43709,456.38474 L 303.43709,456.38474 z M 306.49721,456.43064 C 306.49721,459.13376 307.22399,461.2631 308.67755,462.81865 C 310.1311,464.37422 311.95442,465.152 314.14752,465.152 C 316.3814,465.152 318.22002,464.36657 319.6634,462.7957 C 321.10674,461.22485 321.82841,458.99606 321.82843,456.10933 C 321.82841,454.28347 321.51985,452.68966 320.90275,451.32789 C 320.2856,449.96615 319.38287,448.91041 318.19454,448.16066 C 317.00617,447.41095 315.67247,447.03608 314.19342,447.03606 C 312.09213,447.03608 310.28411,447.75776 308.76935,449.2011 C 307.25459,450.64448 306.49721,453.05432 306.49721,456.43064 L 306.49721,456.43064 z M 328.74431,467.30939 L 328.74431,444.87868 L 338.68972,444.87868 C 340.68899,444.8787 342.20885,445.08016 343.2493,445.48305 C 344.28973,445.88599 345.12106,446.59747 345.74331,447.61749 C 346.36551,448.63755 346.67662,449.76469 346.67664,450.99892 C 346.67662,452.5902 346.1615,453.93156 345.13128,455.02299 C 344.10102,456.11444 342.50976,456.80807 340.35749,457.10387 C 341.1429,457.4813 341.73963,457.85361 342.14766,458.22082 C 343.01468,459.01646 343.83581,460.011 344.61106,461.20444 L 348.51272,467.30939 L 344.77937,467.30939 L 341.81105,462.6427 C 340.944,461.29625 340.22997,460.26601 339.66896,459.55197 C 339.10792,458.83795 338.60555,458.33813 338.16185,458.05251 C 337.71812,457.76691 337.26675,457.568 336.80774,457.45579 C 336.47112,457.38439 335.9203,457.34869 335.15528,457.34868 L 331.71264,457.34868 L 331.71264,467.30939 L 328.74431,467.30939 z M 331.71264,454.77818 L 338.09299,454.77818 C 339.44964,454.77819 340.51048,454.63793 341.27552,454.35741 C 342.04054,454.07691 342.62196,453.62809 343.0198,453.01096 C 343.41759,452.39385 343.6165,451.72317 343.61652,450.99892 C 343.6165,449.9381 343.23144,449.06596 342.46132,448.38252 C 341.69118,447.69911 340.47478,447.3574 338.81212,447.35738 L 331.71264,447.35738 L 331.71264,454.77818 z" id="text3227"/>
    <path style="fill:none;fill-rule:evenodd;stroke:#ffffff;stroke-width:2;stroke-linecap:butt;stroke-linejoin:miter;stroke-miterlimit:4;stroke-dasharray:none;stroke-opacity:1" d="M 125,440 L 800,440 L 800,440" id="path3231"/>
    <path style="fill:none;fill-rule:evenodd;stroke:#ffffff;stroke-width:2;stroke-linecap:butt;stroke-linejoin:miter;stroke-miterlimit:4;stroke-dasharray:none;stroke-opacity:1" d="M 125,540 L 800,540 L 800,540" id="path3233"/>
    <path style="fill:none;fill-rule:evenodd;stroke:#ffffff;stroke-width:2;stroke-linecap:butt;stroke-linejoin:miter;stroke-miterlimit:4;stroke-dasharray:none;stroke-opacity:1" d="M 475,440 L 475,540 L 475,540" id="path3235"/>
    <path id="path3237" d="M 125,590 L 800,590 L 800,590" style="fill:none;fill-rule:evenodd;stroke:#ffffff;stroke-width:2;stroke-linecap:butt;stroke-linejoin:miter;stroke-miterlimit:4;stroke-dasharray:none;stroke-opacity:1"/>
    <path style="fill:none;fill-rule:evenodd;stroke:#ffffff;stroke-width:2;stroke-linecap:butt;stroke-linejoin:miter;stroke-miterlimit:4;stroke-dasharray:none;stroke-opacity:1" d="M 125,640 L 800,640 L 800,640" id="path3239"/>
    <path style="fill:#1a1a1a;fill-rule:evenodd;stroke:#1a1a1a;stroke-width:20;stroke-linecap:round;stroke-linejoin:round;stroke-miterlimit:4;stroke-dasharray:none;stroke-opacity:1" d="M 125,348 L 275,348 L 125,198 L 125,348 z" id="path3243"/>
    <path style="opacity:0.6;fill:url(#radialGradient3253);fill-opacity:1;fill-rule:nonzero;stroke:none;stroke-width:0;stroke-linecap:round;stroke-linejoin:round;stroke-miterlimit:4;stroke-dasharray:none;stroke-dashoffset:10;stroke-opacity:1" id="path3245" d="M 175,340 A 25,25 0 1 1 125,340 A 25,25 0 1 1 175,340 z" transform="matrix(0.7091255,0,0,0.8060837,41.207225,63.022814)"/>
    <path transform="matrix(0.7091255,0,0,0.8060837,135.25665,63.992396)" d="M 175,340 A 25,25 0 1 1 125,340 A 25,25 0 1 1 175,340 z" id="path3255" style="opacity:0.6;fill:url(#radialGradient3257);fill-opacity:1;fill-rule:nonzero;stroke:none;stroke-width:0;stroke-linecap:round;stroke-linejoin:round;stroke-miterlimit:4;stroke-dasharray:none;stroke-dashoffset:10;stroke-opacity:1"/>
    <path style="opacity:0.6;fill:url(#radialGradient3261);fill-opacity:1;fill-rule:nonzero;stroke:none;stroke-width:0;stroke-linecap:round;stroke-linejoin:round;stroke-miterlimit:4;stroke-dasharray:none;stroke-dashoffset:10;stroke-opacity:1" id="path3259" d="M 175,340 A 25,25 0 1 1 125,340 A 25,25 0 1 1 175,340 z" transform="matrix(0.7091255,0,0,0.8060837,42.176802,-32.965779)"/>
    <path transform="scale(0.809895,1.2347279)" style="font-size:31.33567429px;font-style:normal;font-weight:normal;fill:#ffffff;fill-opacity:1;stroke:none;stroke-width:1px;stroke-linecap:butt;stroke-linejoin:miter;stroke-opacity:1;font-family:Bitstream Vera Sans" d="M 187.62668,378.3032 L 190.4267,378.05839 C 190.5593,379.18045 190.86786,380.10103 191.35238,380.82016 C 191.8369,381.53929 192.58918,382.12071 193.60923,382.56443 C 194.62926,383.00815 195.7768,383.23001 197.05187,383.23 C 198.1841,383.23001 199.18374,383.0617 200.05079,382.72508 C 200.91781,382.38847 201.56298,381.9269 201.98632,381.34038 C 202.40962,380.75386 202.62128,380.11378 202.62129,379.42015 C 202.62128,378.71633 202.41727,378.10175 202.00927,377.57642 C 201.60123,377.05111 200.92801,376.60994 199.98958,376.25292 C 199.38775,376.01832 198.05659,375.65366 195.99612,375.15893 C 193.93563,374.66422 192.49227,374.19755 191.66605,373.75892 C 190.595,373.19791 189.79682,372.50173 189.2715,371.67038 C 188.74617,370.83906 188.48351,369.90828 188.48352,368.87802 C 188.48351,367.74579 188.80483,366.6875 189.44746,365.70314 C 190.09008,364.71882 191.02852,363.97164 192.26277,363.4616 C 193.49701,362.9516 194.86897,362.69659 196.37864,362.69657 C 198.04129,362.69659 199.5076,362.96435 200.77757,363.49985 C 202.0475,364.03539 203.02419,364.82338 203.70764,365.8638 C 204.39105,366.90426 204.75826,368.0824 204.80928,369.39824 L 201.96336,369.61245 C 201.81034,368.19461 201.29267,367.12357 200.41035,366.39932 C 199.528,365.67511 198.2249,365.313 196.50104,365.31297 C 194.70576,365.313 193.39756,365.64196 192.57643,366.29986 C 191.75529,366.95781 191.34473,367.75089 191.34473,368.67911 C 191.34473,369.48496 191.63544,370.14799 192.21687,370.66819 C 192.78809,371.18843 194.27989,371.7214 196.6923,372.26711 C 199.10469,372.81284 200.7597,373.28971 201.65735,373.69772 C 202.96299,374.29955 203.92693,375.06203 204.54917,375.98516 C 205.17138,376.9083 205.48249,377.9717 205.48251,379.17534 C 205.48249,380.36879 205.14078,381.49339 204.45737,382.54913 C 203.77392,383.60487 202.79213,384.426 201.512,385.01253 C 200.23183,385.59905 198.79102,385.89231 197.18957,385.89231 C 195.15968,385.89231 193.45876,385.5965 192.08681,385.00488 C 190.71485,384.41325 189.63871,383.52327 188.85838,382.33492 C 188.07805,381.14657 187.66748,379.80267 187.62668,378.3032 L 187.62668,378.3032 z M 225.57223,377.64528 L 228.54055,378.39501 C 227.9183,380.83291 226.79881,382.69193 225.18206,383.97208 C 223.56528,385.25224 221.58895,385.89231 219.25307,385.89231 C 216.83556,385.89231 214.86943,385.40014 213.35468,384.4158 C 211.83991,383.43146 210.68727,382.00596 209.89674,380.13928 C 209.1062,378.27261 208.71094,376.26823 208.71094,374.12613 C 208.71094,371.79025 209.15721,369.75272 210.04974,368.01353 C 210.94228,366.27438 212.21223,364.95343 213.8596,364.05067 C 215.50696,363.14796 217.32008,362.69659 219.29897,362.69657 C 221.54305,362.69659 223.43012,363.26781 224.9602,364.41024 C 226.49024,365.5527 227.55619,367.15927 228.15803,369.22993 L 225.23561,369.91846 C 224.71537,368.28641 223.96054,367.09807 222.97112,366.35342 C 221.98166,365.60881 220.73722,365.23649 219.23777,365.23647 C 217.51389,365.23649 216.07308,365.64961 214.91534,366.47582 C 213.75759,367.30207 212.94411,368.41137 212.47489,369.80371 C 212.00567,371.19608 211.77106,372.63179 211.77106,374.11083 C 211.77106,376.01832 212.04902,377.68354 212.60495,379.10649 C 213.16086,380.52945 214.02535,381.59284 215.1984,382.29667 C 216.37144,383.0005 217.64139,383.35241 219.00826,383.35241 C 220.67091,383.35241 222.07857,382.87299 223.23123,381.91415 C 224.38386,380.95532 225.16419,379.53236 225.57223,377.64528 L 225.57223,377.64528 z M 232.2739,385.5098 L 232.2739,363.07908 L 248.49256,363.07908 L 248.49256,365.72609 L 235.24222,365.72609 L 235.24222,372.59607 L 247.65102,372.59607 L 247.65102,375.22778 L 235.24222,375.22778 L 235.24222,382.86279 L 249.01278,382.86279 L 249.01278,385.5098 L 232.2739,385.5098 z M 253.11335,385.5098 L 253.11335,363.07908 L 256.15817,363.07908 L 267.93965,380.6901 L 267.93965,363.07908 L 270.78556,363.07908 L 270.78556,385.5098 L 267.74074,385.5098 L 255.95926,367.88348 L 255.95926,385.5098 L 253.11335,385.5098 z M 275.85007,385.5098 L 275.85007,363.07908 L 292.06873,363.07908 L 292.06873,365.72609 L 278.81839,365.72609 L 278.81839,372.59607 L 291.22719,372.59607 L 291.22719,375.22778 L 278.81839,375.22778 L 278.81839,382.86279 L 292.58895,382.86279 L 292.58895,385.5098 L 275.85007,385.5098 z" id="text3211"/>
    <path transform="scale(0.809895,1.2347279)" style="font-size:31.33567429px;font-style:normal;font-weight:normal;fill:#ffffff;fill-opacity:1;stroke:none;stroke-width:1px;stroke-linecap:butt;stroke-linejoin:miter;stroke-opacity:1;font-family:Bitstream Vera Sans" d="M 625.91113,385.12729 L 625.91113,365.34358 L 618.52093,365.34358 L 618.52093,362.69658 L 636.30025,362.69658 L 636.30025,365.34358 L 628.87945,365.34358 L 628.87945,385.12729 L 625.91113,385.12729 z M 636.89698,385.12729 L 645.51123,362.69658 L 648.70906,362.69658 L 657.88943,385.12729 L 654.50799,385.12729 L 651.89159,378.33381 L 642.51231,378.33381 L 640.04891,385.12729 L 636.89698,385.12729 z M 643.36914,375.91631 L 650.97355,375.91631 L 648.63255,369.70426 C 647.91851,367.8172 647.38809,366.26674 647.04129,365.05287 C 646.75567,366.49115 646.35275,367.91921 645.83254,369.33705 L 643.36914,375.91631 z M 660.16922,385.12729 L 660.16922,362.69658 L 663.13754,362.69658 L 663.13754,373.82013 L 674.2764,362.69658 L 678.30046,362.69658 L 668.89058,371.78515 L 678.71358,385.12729 L 674.79662,385.12729 L 666.80969,373.77423 L 663.13754,377.35457 L 663.13754,385.12729 L 660.16922,385.12729 z M 681.28408,385.12729 L 681.28408,362.69658 L 697.50274,362.69658 L 697.50274,365.34358 L 684.2524,365.34358 L 684.2524,372.21356 L 696.66121,372.21356 L 696.66121,374.84527 L 684.2524,374.84527 L 684.2524,382.48028 L 698.02296,382.48028 L 698.02296,385.12729 L 681.28408,385.12729 z" id="text3215"/>
  </g>
</svg>